<svg id="Layer_1" enable-background="new 0 0 510 510" height="512" viewBox="0 0 510 510" width="512" xmlns="http://www.w3.org/2000/svg"><g><path d="m15 0v510h360v-411.213l-98.787-98.787zm270 51.213 38.787 38.787h-38.787zm-240 428.787v-450h210v90h90v360z"/><path d="m245.817 383.094-59.137 39.425 16.64 24.962 30.863-20.575 11.546 23.094h69.271v-30h-50.729z"/><path d="m450 60c-24.813 0-45 20.187-45 45v334.379l45 70.5 45-70.5c0-14.712 0-317.505 0-334.379 0-24.813-20.187-45-45-45zm15 135h-30v-30h30zm-15-105c8.271 0 15 6.729 15 15v30h-30v-30c0-8.271 6.729-15 15-15zm15 340.621-15 23.5-15-23.5v-25.621h30zm-30-55.621v-150h30v150z"/><path d="m75 315h240v30h-240z"/><path d="m75 255h240v30h-240z"/><path d="m75 195h240v30h-240z"/><path d="m75 135h120v30h-120z"/><path d="m75 75h120v30h-120z"/></g></svg>