<?xml version="1.0"?>
<svg xmlns="http://www.w3.org/2000/svg" height="512px" viewBox="0 0 512 512" width="512px" class=""><g><path d="m248.863281 161.730469 92.042969-92.042969 24.542969 24.542969-92.042969 92.042969zm0 0" data-original="#000000" class="active-path" data-old_color="#ffffff" fill="#ffffff"/><path d="m205.910156 131.046875 42.957032-42.957031-24.550782-24.550782-116.589844 116.589844 24.550782 24.550782zm0 0" data-original="#000000" class="active-path" data-old_color="#ffffff" fill="#ffffff"/><path d="m403.480469 31.648438-63.382813 12.679687 50.707032 50.703125zm0 0" data-original="#000000" class="active-path" data-old_color="#ffffff" fill="#ffffff"/><path d="m236.597656 149.453125 3.339844-3.351563 33.46875-33.46875-12.269531-12.273437-36.820313 36.820313zm0 0" data-original="#000000" class="active-path" data-old_color="#ffffff" fill="#ffffff"/><path d="m69.421875 355.796875h17.359375v17.355469h-17.359375zm0 0" data-original="#000000" class="active-path" data-old_color="#ffffff" fill="#ffffff"/><path d="m190.914062 295.050781h17.355469v17.355469h-17.355469zm0 0" data-original="#000000" class="active-path" data-old_color="#ffffff" fill="#ffffff"/><path d="m312.40625 208.269531h17.355469v17.359375h-17.355469zm0 0" data-original="#000000" class="active-path" data-old_color="#ffffff" fill="#ffffff"/><path d="m433.898438 130.167969h17.355468v17.359375h-17.355468zm0 0" data-original="#000000" class="active-path" data-old_color="#ffffff" fill="#ffffff"/><path d="m503.320312 494.644531h-34.710937v-312.40625h-52.066406v312.40625h-69.425781v-234.304687h-52.066407v234.304687h-69.421875v-147.527343h-52.070312v147.527343h-69.421875v-86.78125h-52.070313v86.78125h-34.710937v-485.964843c0-4.792969-3.882813-8.679688-8.675781-8.679688-4.792969 0-8.679688 3.886719-8.679688 8.679688v494.640624c0 4.792969 3.886719 8.679688 8.679688 8.679688h494.640624c4.792969 0 8.679688-3.886719 8.679688-8.679688 0-4.789062-3.886719-8.675781-8.679688-8.675781zm0 0" data-original="#000000" class="active-path" data-old_color="#ffffff" fill="#ffffff"/></g> </svg>
