<?xml version="1.0"?>
<svg xmlns="http://www.w3.org/2000/svg" height="512px" viewBox="-55 0 512 512" width="512px" class=""><g><path d="m354.609375 16.578125h-73.929687c1.308593 4.761719 2.011718 9.761719 2.011718 14.933594v.128906c0 31.160156-25.351562 56.507813-56.511718 56.507813h-50.359376c-31.160156 0-56.511718-25.347657-56.511718-56.507813v-.128906c0-5.171875.703125-10.171875 2.011718-14.933594h-73.929687c-26.128906 0-47.390625 21.230469-47.390625 47.34375v400.738281c0 26.101563 21.261719 47.339844 47.390625 47.339844h307.21875c26.128906 0 47.390625-21.238281 47.390625-47.339844v-400.738281c0-26.113281-21.261719-47.34375-47.390625-47.34375zm-214.398437 378.273437-34.675782 34.675782c-4.082031 4.082031-9.441406 6.121094-14.804687 6.121094-5.359375 0-10.71875-2.039063-14.800781-6.117188l-15.238282-15.242188c-5.859375-5.859374-5.859375-15.355468 0-21.214843 5.855469-5.855469 15.355469-5.855469 21.210938 0l8.828125 8.832031 28.265625-28.265625c5.859375-5.859375 15.355468-5.859375 21.214844 0 5.855468 5.855469 5.855468 15.355469 0 21.210937zm0-108.304687-34.675782 34.675781c-4.082031 4.082032-9.441406 6.121094-14.804687 6.121094-5.359375 0-10.71875-2.039062-14.800781-6.117188l-15.238282-15.242187c-5.859375-5.859375-5.859375-15.355469 0-21.214844 5.855469-5.859375 15.355469-5.859375 21.210938 0l8.828125 8.828125 28.265625-28.261718c5.859375-5.859376 15.355468-5.859376 21.214844 0 5.855468 5.855468 5.855468 15.351562 0 21.210937zm0-112.679687-34.675782 34.675781c-4.082031 4.078125-9.441406 6.121093-14.804687 6.121093-5.359375 0-10.71875-2.042968-14.800781-6.121093l-15.238282-15.242188c-5.859375-5.855469-5.859375-15.355469 0-21.210937 5.855469-5.859375 15.355469-5.859375 21.210938 0l8.828125 8.828125 28.265625-28.265625c5.859375-5.855469 15.355468-5.855469 21.214844 0 5.855468 5.859375 5.855468 15.355468 0 21.214844zm185.648437 246.585937h-145.484375c-8.285156 0-15-6.714844-15-15s6.714844-15 15-15h145.484375c8.28125 0 15 6.714844 15 15s-6.714844 15-15 15zm0-108.304687h-145.484375c-8.285156 0-15-6.714844-15-15 0-8.285157 6.714844-15 15-15h145.484375c8.28125 0 15 6.714843 15 15 0 8.285156-6.714844 15-15 15zm0-112.683594h-145.484375c-8.285156 0-15-6.714844-15-15 0-8.28125 6.714844-15 15-15h145.484375c8.28125 0 15 6.71875 15 15 0 8.285156-6.714844 15-15 15zm0 0" data-original="#000000" class="active-path" data-old_color="#ffffff" fill="#ffffff"/><path d="m175.816406 63.152344h50.367188c17.402344 0 31.507812-14.109375 31.507812-31.511719v-.128906c0-17.402344-14.105468-31.511719-31.507812-31.511719h-50.367188c-17.402344 0-31.507812 14.105469-31.507812 31.511719v.128906c0 17.402344 14.105468 31.511719 31.507812 31.511719zm0 0" data-original="#000000" class="active-path" data-old_color="#ffffff" fill="#ffffff"/></g> </svg>
