<svg xmlns="http://www.w3.org/2000/svg" width="19.133" height="19.133" viewBox="0 0 19.133 19.133">
  <g id="Configiration" transform="translate(-5358 -4149)">
    <path id="路径" d="M0,13.075V2.254A2.254,2.254,0,0,1,2.254,0H4.96A2.254,2.254,0,0,1,7.214,2.254V4.96" transform="translate(5359 4150)" fill="none" stroke="#fff" stroke-linecap="round" stroke-linejoin="round" stroke-miterlimit="10" stroke-width="2"/>
    <path id="路径-2" data-name="路径" d="M0,13.075V2.254A2.254,2.254,0,0,1,2.254,0H4.96A2.254,2.254,0,0,1,7.214,2.254V5.861" transform="translate(5370.5 4150.674) rotate(45)" fill="none" stroke="#fff" stroke-linecap="round" stroke-linejoin="round" stroke-miterlimit="10" stroke-width="2"/>
    <path id="路径-3" data-name="路径" d="M0,3.607V2.254A2.254,2.254,0,0,1,2.254,0H14.879a2.254,2.254,0,0,1,2.254,2.254V4.96a2.254,2.254,0,0,1-2.254,2.254H1.8" transform="translate(5359 4159.919)" fill="none" stroke="#fff" stroke-linecap="round" stroke-linejoin="round" stroke-miterlimit="10" stroke-width="2"/>
    <circle id="椭圆形" cx="0.902" cy="0.902" r="0.902" transform="translate(5361.706 4162.624)" fill="none" stroke="#fff" stroke-width="2"/>
  </g>
</svg>
