<svg xmlns="http://www.w3.org/2000/svg" width="17.67" height="17.671" viewBox="0 0 17.67 17.671">
  <g id="Ventes" transform="translate(-5229 -4149)">
    <path id="路径" d="M0,3.134H0A3.524,3.524,0,0,1,3.134,0h0a.881.881,0,0,1,.784.784v2.35" transform="translate(5235.877 4159.403)" fill="none" stroke="#fff" stroke-linecap="round" stroke-linejoin="round" stroke-miterlimit="10" stroke-width="2"/>
    <path id="路径-2" data-name="路径" d="M11.753,0V7.835A1.959,1.959,0,0,1,9.794,9.794H0" transform="translate(5232.742 4155.877)" fill="none" stroke="#fff" stroke-linecap="round" stroke-linejoin="round" stroke-miterlimit="10" stroke-width="2"/>
    <path id="路径-3" data-name="路径" d="M.5,0V6.66" transform="translate(5230.675 4155.877)" fill="none" stroke="#fff" stroke-linecap="round" stroke-linejoin="round" stroke-miterlimit="10" stroke-width="2"/>
    <circle id="椭圆形" cx="0.784" cy="0.784" r="0.784" transform="translate(5241.361 4158.619)" fill="none" stroke="#fff" stroke-width="2"/>
    <path id="路径-4" data-name="路径" d="M2.118.349A.784.784,0,0,1,2.77,0H12.9a.784.784,0,0,1,.652.349L15.67,3.526a2.743,2.743,0,0,1-5.289,1.02,2.744,2.744,0,0,1-5.093,0A2.743,2.743,0,0,1,0,3.526Z" transform="translate(5230 4150)" fill="none" stroke="#fff" stroke-linecap="round" stroke-linejoin="round" stroke-miterlimit="10" stroke-width="2"/>
  </g>
</svg>
